<?xml version="1.0" standalone="no"?><!DOCTYPE svg PUBLIC "-//W3C//DTD SVG 1.1//EN" "http://www.w3.org/Graphics/SVG/1.1/DTD/svg11.dtd"><svg t="1612791134942" class="icon" viewBox="0 0 1024 1024" version="1.1" xmlns="http://www.w3.org/2000/svg" p-id="5215" xmlns:xlink="http://www.w3.org/1999/xlink" width="64" height="64"><defs><style type="text/css"></style></defs><path d="M512 930.13c-56.43 0-111.2-11.06-162.77-32.87-49.8-21.06-94.51-51.21-132.9-89.6s-68.53-83.1-89.6-132.9C104.93 623.2 93.87 568.43 93.87 512s11.06-111.2 32.87-162.77c21.06-49.8 51.21-94.51 89.6-132.9s83.1-68.53 132.9-89.6C400.8 104.93 455.57 93.87 512 93.87s111.2 11.06 162.77 32.87c49.79 21.06 94.51 51.21 132.9 89.6s68.53 83.1 89.6 132.9c21.81 51.57 32.87 106.33 32.87 162.77 0 66.21-15.84 131.99-45.85 190.55 1.21 7.74 7.61 24.24 11.6 34.5 5.24 13.5 10.66 27.45 13.75 40.58 2.02 8.58 8.18 34.67-8.79 54.95-12.64 15.1-31.95 20.54-57.38 16.18-13.85-2.38-28.75-7.41-41.91-11.85-5.68-1.92-13.28-4.48-19-6.09-75.52 64.13-171.1 99.3-270.56 99.3z m0-768c-93.45 0-181.31 36.39-247.39 102.47S162.13 418.55 162.13 512c0 93.45 36.39 181.31 102.47 247.39 66.09 66.08 153.95 102.48 247.4 102.48 86.71 0 169.9-31.95 234.23-89.97 16.96-15.3 39.33-10.42 46.68-8.83 9.51 2.07 19.69 5.51 30.47 9.15 3.98 1.34 9.27 3.13 14.65 4.8-1.98-5.45-4.1-10.92-5.79-15.27-12.28-31.63-23.88-61.51-10.49-86.92C848 625.02 861.87 568.72 861.87 512c0-93.45-36.39-181.31-102.47-247.39-66.09-66.08-153.95-102.48-247.4-102.48z" fill="#3F3F3F" p-id="5216"></path><path d="M426.67 503.47c-18.85 0-34.13-15.28-34.13-34.13 0-18.23-3.11-33.02-8.75-41.65-3.25-4.96-8.06-9.56-21.11-9.56-13.06 0-17.87 4.59-21.11 9.56-5.64 8.62-8.75 23.41-8.75 41.64 0 18.85-15.28 34.13-34.13 34.13s-34.13-15.28-34.13-34.13c0-32.27 6.7-58.86 19.9-79.04 17.07-26.07 44.85-40.43 78.23-40.43s61.16 14.36 78.23 40.43c13.21 20.17 19.9 46.76 19.9 79.04-0.02 18.85-15.3 34.14-34.15 34.14zM725.33 503.47c-18.85 0-34.13-15.28-34.13-34.13 0-18.23-3.11-33.02-8.75-41.65-3.25-4.96-8.06-9.56-21.12-9.56s-17.87 4.59-21.11 9.56c-5.64 8.62-8.75 23.41-8.75 41.64 0 18.85-15.28 34.13-34.13 34.13s-34.13-15.28-34.13-34.13c0-32.27 6.7-58.86 19.9-79.04 17.07-26.07 44.85-40.43 78.23-40.43s61.16 14.36 78.23 40.43c13.21 20.17 19.9 46.76 19.9 79.03 0 18.86-15.29 34.15-34.14 34.15z" fill="#3F3F3F" p-id="5217"></path><path d="M362.67 597.33c0 70.69 66.86 128 149.33 128s149.33-57.31 149.33-128" fill="#FFC33E" p-id="5218"></path></svg>