<?xml version="1.0" standalone="no"?><!DOCTYPE svg PUBLIC "-//W3C//DTD SVG 1.1//EN" "http://www.w3.org/Graphics/SVG/1.1/DTD/svg11.dtd"><svg t="1613972718531" class="icon" viewBox="0 0 1474 1024" version="1.1" xmlns="http://www.w3.org/2000/svg" p-id="6937" xmlns:xlink="http://www.w3.org/1999/xlink" width="92.125" height="64"><defs><style type="text/css"></style></defs><path d="M318.201045 384.499748v-81.157105h182.714358v81.157105zM973.001407 384.499748v-81.157105h182.714358v81.157105zM547.037474 857.472715v-81.157105h380.063603v81.157105zM189.813165 1023.334778A737.731393 737.731393 0 0 1 83.599358 188.259206l39.469849 20.400147a693.161507 693.161507 0 0 0 99.561586 784.962168zM1283.660163 1024l-32.817627-29.713257a694.270211 694.270211 0 0 0 100.226808-785.62739l39.248108-20.400147a737.953134 737.953134 0 0 1-106.657289 835.740794zM318.866267 117.523915a58.761292 58.761292 0 1 1 58.761293-58.761292 58.761292 58.761292 0 0 1-58.761293 58.761292z m0-99.783327a41.022034 41.022034 0 1 0 40.800294 41.022035A41.022034 41.022034 0 0 0 318.866267 17.740588zM486.280515 117.523915a58.761292 58.761292 0 1 1 58.539552-58.761292 58.761292 58.761292 0 0 1-58.539552 58.761292z m0-99.783327a41.022034 41.022034 0 1 0 41.022034 41.022035A41.243775 41.243775 0 0 0 486.280515 17.740588zM653.473022 117.523915a58.761292 58.761292 0 1 1 58.761292-58.761292 58.761292 58.761292 0 0 1-58.761292 58.761292z m0-99.783327a41.022034 41.022034 0 1 0 41.022034 41.022035A41.022034 41.022034 0 0 0 653.473022 17.740588zM820.665529 117.523915a58.761292 58.761292 0 1 1 58.761292-58.761292 58.761292 58.761292 0 0 1-58.761292 58.761292z m0-99.783327a41.022034 41.022034 0 1 0 41.022034 41.022035A41.022034 41.022034 0 0 0 820.665529 17.740588zM987.858036 117.523915a58.761292 58.761292 0 1 1 59.204773-58.761292 58.761292 58.761292 0 0 1-59.204773 58.761292z m0-99.783327a41.022034 41.022034 0 1 0 41.022034 41.022035A41.022034 41.022034 0 0 0 987.858036 17.740588zM1155.050543 117.523915a58.761292 58.761292 0 1 1 58.761292-58.761292 58.761292 58.761292 0 0 1-58.761292 58.761292z m0-99.783327a41.022034 41.022034 0 1 0 41.022034 41.022035A41.022034 41.022034 0 0 0 1155.050543 17.740588z" fill="#4D4D4D" p-id="6938"></path></svg>